HIERARCHY
ROOT Hips
{
  OFFSET 5.84602e-005 68.8428 3.50346
  CHANNELS 6 Xposition Yposition Zposition Zrotation Xrotation Yrotation
  JOINT Spine
  {
    OFFSET 0 8.597 -4.6522
    CHANNELS 3 Zrotation Xrotation Yrotation
    JOINT Spine1
    {
      OFFSET 0 7.8454 0.4098
      CHANNELS 3 Zrotation Xrotation Yrotation
      JOINT Spine2
      {
        OFFSET 0 9.7078 -2.1609
        CHANNELS 3 Zrotation Xrotation Yrotation
        JOINT Neck
        {
          OFFSET 0 21.8761 -0.4549
          CHANNELS 3 Zrotation Xrotation Yrotation
          JOINT Head
          {
            OFFSET 0 12.3537 3.3602
            CHANNELS 3 Zrotation Xrotation Yrotation
            End Site
            {
              OFFSET 0.0001 18.9506 0.5657
            }
          }
        }
        JOINT LeftShoulder
        {
          OFFSET 2.2086 21.1115 7.2329
          CHANNELS 3 Zrotation Xrotation Yrotation
          JOINT LeftArm
          {
            OFFSET 13.1193 3.0282 -4.8998
            CHANNELS 3 Zrotation Xrotation Yrotation
            JOINT LeftForeArm
            {
              OFFSET 27.4081 -0.0973053 -0.2375
              CHANNELS 3 Zrotation Xrotation Yrotation
              JOINT LeftHand
              {
                OFFSET 22.8641 0.0662994 -0.1369
                CHANNELS 3 Zrotation Xrotation Yrotation
                JOINT LeftHandIndex1
                {
                  OFFSET 8.8614 0.775009 2.4612
                  CHANNELS 3 Zrotation Xrotation Yrotation
                  JOINT LeftHandIndex2
                  {
                    OFFSET 3.3146 -0.808304 0.5841
                    CHANNELS 3 Zrotation Xrotation Yrotation
                    JOINT LeftHandIndex3
                    {
                      OFFSET 2.2628 -0.552002 0.3989
                      CHANNELS 3 Zrotation Xrotation Yrotation
                      End Site
                      {
                        OFFSET 1.6102 -0.4807 0.2612
                      }
                    }
                  }
                }
                JOINT LeftHandMiddle1
                {
                  OFFSET 8.9937 0.895004 0.2143
                  CHANNELS 3 Zrotation Xrotation Yrotation
                  JOINT LeftHandMiddle2
                  {
                    OFFSET 4.0984 0.0113983 -0.0242
                    CHANNELS 3 Zrotation Xrotation Yrotation
                    JOINT LeftHandMiddle3
                    {
                      OFFSET 2.2716 0.00689697 -0.0138001
                      CHANNELS 3 Zrotation Xrotation Yrotation
                      End Site
                      {
                        OFFSET 2.0404 -0.1441 0.0027
                      }
                    }
                  }
                }
                JOINT LeftHandRing1
                {
                  OFFSET 8.5234 0.597198 -2.0164
                  CHANNELS 3 Zrotation Xrotation Yrotation
                  JOINT LeftHandRing2
                  {
                    OFFSET 3.7188 -0.188293 -0.2328
                    CHANNELS 3 Zrotation Xrotation Yrotation
                    JOINT LeftHandRing3
                    {
                      OFFSET 2.1191 -0.106598 -0.1332
                      CHANNELS 3 Zrotation Xrotation Yrotation
                      End Site
                      {
                        OFFSET 1.8737 -0.2304 -0.0886
                      }
                    }
                  }
                }
                JOINT LeftHandPinky1
                {
                  OFFSET 7.9094 -0.601089 -3.4825
                  CHANNELS 3 Zrotation Xrotation Yrotation
                  JOINT LeftHandPinky2
                  {
                    OFFSET 2.2874 -0.477005 -0.6314
                    CHANNELS 3 Zrotation Xrotation Yrotation
                    JOINT LeftHandPinky3
                    {
                      OFFSET 1.6774 -0.349396 -0.4633
                      CHANNELS 3 Zrotation Xrotation Yrotation
                      End Site
                      {
                        OFFSET 1.4888 -0.4091 -0.3416
                      }
                    }
                  }
                }
                JOINT LeftHandThumb1
                {
                  OFFSET 1.833 -1.3875 1.3896
                  CHANNELS 3 Zrotation Xrotation Yrotation
                  JOINT LeftHandThumb2
                  {
                    OFFSET 3.4129 -1.121 2.5732
                    CHANNELS 3 Zrotation Xrotation Yrotation
                    JOINT LeftHandThumb3
                    {
                      OFFSET 2.2474 -0.804199 1.6192
                      CHANNELS 3 Zrotation Xrotation Yrotation
                      End Site
                      {
                        OFFSET 1.6527 -0.5689 1.1317
                      }
                    }
                  }
                }
              }
            }
          }
        }
        JOINT RightShoulder
        {
          OFFSET -2.2086 21.1115 7.2329
          CHANNELS 3 Zrotation Xrotation Yrotation
          JOINT RightArm
          {
            OFFSET -13.1216 3.0287 -4.9007
            CHANNELS 3 Zrotation Xrotation Yrotation
            JOINT RightForeArm
            {
              OFFSET -27.4081 -0.0973053 -0.2375
              CHANNELS 3 Zrotation Xrotation Yrotation
              JOINT RightHand
              {
                OFFSET -22.8641 0.0664063 -0.1369
                CHANNELS 3 Zrotation Xrotation Yrotation
                JOINT RightHandIndex1
                {
                  OFFSET -8.8614 0.774994 2.4612
                  CHANNELS 3 Zrotation Xrotation Yrotation
                  JOINT RightHandIndex2
                  {
                    OFFSET -3.3146 -0.808304 0.5841
                    CHANNELS 3 Zrotation Xrotation Yrotation
                    JOINT RightHandIndex3
                    {
                      OFFSET -2.2628 -0.552002 0.3989
                      CHANNELS 3 Zrotation Xrotation Yrotation
                      End Site
                      {
                        OFFSET -1.6102 -0.4807 0.2612
                      }
                    }
                  }
                }
                JOINT RightHandMiddle1
                {
                  OFFSET -8.9937 0.894989 0.2143
                  CHANNELS 3 Zrotation Xrotation Yrotation
                  JOINT RightHandMiddle2
                  {
                    OFFSET -4.0984 0.0113983 -0.0242
                    CHANNELS 3 Zrotation Xrotation Yrotation
                    JOINT RightHandMiddle3
                    {
                      OFFSET -2.2716 0.00691223 -0.0138001
                      CHANNELS 3 Zrotation Xrotation Yrotation
                      End Site
                      {
                        OFFSET -2.0404 -0.1441 0.0027
                      }
                    }
                  }
                }
                JOINT RightHandRing1
                {
                  OFFSET -8.5234 0.597198 -2.0164
                  CHANNELS 3 Zrotation Xrotation Yrotation
                  JOINT RightHandRing2
                  {
                    OFFSET -3.7188 -0.188309 -0.2328
                    CHANNELS 3 Zrotation Xrotation Yrotation
                    JOINT RightHandRing3
                    {
                      OFFSET -2.1191 -0.106598 -0.1332
                      CHANNELS 3 Zrotation Xrotation Yrotation
                      End Site
                      {
                        OFFSET -1.8737 -0.2304 -0.0886
                      }
                    }
                  }
                }
                JOINT RightHandPinky1
                {
                  OFFSET -7.9094 -0.601105 -3.4825
                  CHANNELS 3 Zrotation Xrotation Yrotation
                  JOINT RightHandPinky2
                  {
                    OFFSET -2.2874 -0.477005 -0.6314
                    CHANNELS 3 Zrotation Xrotation Yrotation
                    JOINT RightHandPinky3
                    {
                      OFFSET -1.6774 -0.349396 -0.4633
                      CHANNELS 3 Zrotation Xrotation Yrotation
                      End Site
                      {
                        OFFSET -1.4888 -0.4091 -0.3416
                      }
                    }
                  }
                }
                JOINT RightHandThumb1
                {
                  OFFSET -1.833 -1.38751 1.3896
                  CHANNELS 3 Zrotation Xrotation Yrotation
                  JOINT RightHandThumb2
                  {
                    OFFSET -3.41299 -1.12099 2.5732
                    CHANNELS 3 Zrotation Xrotation Yrotation
                    JOINT RightHandThumb3
                    {
                      OFFSET -2.24741 -0.804108 1.6192
                      CHANNELS 3 Zrotation Xrotation Yrotation
                      End Site
                      {
                        OFFSET -1.6527 -0.5689 1.1317
                      }
                    }
                  }
                }
              }
            }
          }
        }
      }
    }
  }
  JOINT RightUpLeg
  {
    OFFSET -9.1966 3.8861 -0.7581
    CHANNELS 3 Zrotation Xrotation Yrotation
    JOINT RightLeg
    {
      OFFSET -0.7359 -41.0265 0
      CHANNELS 3 Zrotation Xrotation Yrotation
      JOINT RightFoot
      {
        OFFSET 0 -40.2855 0
        CHANNELS 3 Zrotation Xrotation Yrotation
        JOINT RightToeBase
        {
          OFFSET 0 -5.6122 11.7359
          CHANNELS 3 Zrotation Xrotation Yrotation
          End Site
          {
            OFFSET 0 0 7.8731
          }
        }
      }
    }
  }
  JOINT LeftUpLeg
  {
    OFFSET 9.1965 3.8864 -0.7581
    CHANNELS 3 Zrotation Xrotation Yrotation
    JOINT LeftLeg
    {
      OFFSET 0.7359 -41.0268 0
      CHANNELS 3 Zrotation Xrotation Yrotation
      JOINT LeftFoot
      {
        OFFSET 0 -40.2855 0
        CHANNELS 3 Zrotation Xrotation Yrotation
        JOINT LeftToeBase
        {
          OFFSET 0 -5.6122 11.7359
          CHANNELS 3 Zrotation Xrotation Yrotation
          End Site
          {
            OFFSET 0 0 7.8731
          }
        }
      }
    }
  }
}
MOTION
Frames:	5
Frame Time:	0.0333333
1.66336 23.4233 23.0747 -0.000227106 -13.4989 179.999 0.00808234 3.34491 -0.0491543 0.019094 6.68986 -0.0990362 0.019094 6.68987 -0.0990363 8.75149e-007 33.1807 -9.02635e-007 -5.08677 -10.4314 -0.926307 -26.8642 4.21389 -8.36404 -23.9043 -3.21337 -38.1726 -37.3057 41.6281 -25.6286 61.0663 -18.9588 -22.523 6.36111e-015 -1.16786e-015 6.4605e-016 3.18055e-015 -1.19271e-015 1.54058e-015 3.18055e-015 2.3233e-015 7.95139e-016 6.36111e-015 -1.16786e-015 6.4605e-016 -0.0146261 -9.3852e-005 1.63141e-008 1.59028e-015 4.27387e-015 1.63997e-015 6.36111e-015 -1.16786e-015 6.4605e-016 -0.0187425 -0.00117947 5.89991e-005 1.59028e-015 6.34869e-015 2.33572e-015 6.36111e-015 -1.16786e-015 6.4605e-016 -0.0122448 -0.00323771 0.000673628 -3.18055e-015 -2.17421e-015 8.94531e-016 6.36111e-015 -1.16786e-015 6.4605e-016 3.18055e-015 -1.19271e-015 1.54058e-015 3.18055e-015 2.3233e-015 7.95139e-016 25.4722 -0.140667 4.48561 24.2629 -3.68575 40.4387 39.1773 41.5494 31.2559 -49.7307 -55.7712 -14.7555 -2.08724e-015 1.59028e-015 -6.36111e-015 -3.97569e-016 -1.98785e-016 3.18055e-015 -8.94531e-016 -4.96962e-016 -0 -2.08724e-015 1.59028e-015 -6.36111e-015 0.014978 -9.03416e-005 2.24554e-006 -1.59028e-015 -2.08724e-015 -0 -2.08724e-015 1.59028e-015 -6.36111e-015 0.0190066 -0.00119175 -6.0532e-005 9.54166e-015 -1.33186e-014 -3.18055e-015 -2.08724e-015 1.59028e-015 -6.36111e-015 0.0122861 -0.00325294 -0.000675342 -1.39149e-015 -3.08116e-015 -3.18055e-015 -2.08724e-015 1.59028e-015 -6.36111e-015 -3.97569e-016 -1.98785e-016 3.18055e-015 -8.94531e-016 -4.96962e-016 -0 -8.39011 -31.9003 -23.6196 -173.236 62.007 169.702 17.2701 37.5272 -28.395 6.58879e-008 5.24585e-008 1.96067e-007 10.5725 -32.7424 20.9448 172.936 60.8535 -169.232 -18.6779 39.4476 25.0715 1.48643e-006 3.18335e-006 3.32946e-007 
1.66342 23.4032 23.2189 -0.000235877 -14.0001 179.999 0.00846775 3.40023 -0.0491418 0.0199157 6.80044 -0.0990504 0.0199157 6.80046 -0.0990505 6.57095e-007 33.5895 -3.64419e-007 -5.083 -10.1969 -0.905123 -27.2479 3.2545 -7.95732 -23.9043 -3.21336 -38.1726 -37.6068 41.7459 -25.8677 60.7796 -18.2511 -23.0084 -1.59028e-014 -9.6659e-015 -3.47873e-016 -1.96448e-006 -2.20328e-006 9.68333e-007 1.2204e-031 5.62809e-015 -1.2424e-015 -1.59028e-014 -9.6659e-015 -3.47873e-016 -0.0146124 -8.79901e-005 2.19053e-006 -1.59028e-015 4.27387e-015 7.45443e-016 -1.59028e-014 -9.6659e-015 -3.47873e-016 -0.0187657 -0.00117059 5.84943e-005 -5.10789e-033 9.81499e-016 2.98177e-016 -1.59028e-014 -9.6659e-015 -3.47873e-016 -0.0122839 -0.00325382 0.000677363 -8.24435e-007 -1.59755e-006 9.95758e-007 -1.59028e-014 -9.6659e-015 -3.47873e-016 -1.96448e-006 -2.20328e-006 9.68333e-007 1.2204e-031 5.62809e-015 -1.2424e-015 25.7448 -1.06152 4.18162 24.2629 -3.68573 40.4387 39.5397 41.722 31.6079 -49.5552 -55.017 -14.6302 -5.96354e-016 5.96354e-016 -0 -1.39149e-015 0 1.27222e-014 -1.78906e-015 -1.59028e-015 3.18055e-015 -5.96354e-016 5.96354e-016 -0 0.014993 -8.925e-005 7.00505e-006 8.94531e-016 9.93923e-016 -0 -5.96354e-016 5.96354e-016 -0 0.0190194 -0.00119336 -6.25556e-005 1.09332e-014 -9.34288e-015 1.27222e-014 -5.96354e-016 5.96354e-016 -0 0.012276 -0.00324924 -0.000680602 7.25564e-015 -1.08338e-014 3.18055e-015 -5.96354e-016 5.96354e-016 -0 -1.39149e-015 0 1.27222e-014 -1.78906e-015 -1.59028e-015 3.18055e-015 -8.51483 -32.5482 -23.8026 -173.241 61.9767 169.704 17.2716 37.5295 -28.3978 6.60889e-008 5.25386e-008 1.95975e-007 10.6911 -33.3951 21.1203 172.937 60.8521 -169.232 -18.6784 39.45 25.0725 1.94486e-007 -1.59411e-007 5.88666e-007 
1.66347 23.3836 23.3633 -0.000244685 -14.5012 179.999 0.00885296 3.4555 -0.0491281 0.0207374 6.911 -0.0990634 0.0207374 6.91101 -0.0990635 -1.94001e-007 33.9972 4.49631e-007 -5.07931 -9.96259 -0.88398 -27.6242 2.29284 -7.55749 -23.9043 -3.21336 -38.1726 -37.9076 41.8646 -26.1064 60.5005 -17.5412 -23.488 -1.59028e-015 2.6339e-015 -2.03754e-015 1.59028e-015 2.36057e-015 -5.96354e-016 1.59028e-015 5.41688e-015 4.96962e-017 -1.59028e-015 2.6339e-015 -2.03754e-015 -0.0146124 -9.79465e-005 9.62556e-006 -1.59028e-015 7.1811e-015 1.19271e-015 -1.59028e-015 2.6339e-015 -2.03754e-015 -0.0187637 -0.00117689 5.74392e-005 7.9709e-007 -3.43278e-006 3.90429e-006 -1.59028e-015 2.6339e-015 -2.03754e-015 -0.0122808 -0.00324942 0.000675381 7.97998e-007 -3.43284e-006 3.90455e-006 -1.59028e-015 2.6339e-015 -2.03754e-015 1.59028e-015 2.36057e-015 -5.96354e-016 1.59028e-015 5.41688e-015 4.96962e-017 26.0125 -1.98348 3.88195 24.2629 -3.68574 40.4387 39.9016 41.8963 31.9593 -49.3859 -54.2628 -14.5113 -7.95139e-016 -2.18663e-015 6.36111e-015 -2.38542e-015 8.94531e-016 9.54166e-015 2.98177e-016 -9.93923e-017 9.54166e-015 -7.95139e-016 -2.18663e-015 6.36111e-015 0.0149693 -9.04391e-005 -2.09654e-007 -6.95746e-016 8.94531e-016 -6.36111e-015 -7.95139e-016 -2.18663e-015 6.36111e-015 0.0190033 -0.00119227 -6.44313e-005 -5.50975e-007 7.5868e-007 6.63478e-007 -7.95139e-016 -2.18663e-015 6.36111e-015 0.0122651 -0.00324782 -0.000678299 1.2921e-015 -1.59028e-015 3.18055e-015 -7.95139e-016 -2.18663e-015 6.36111e-015 -2.38542e-015 8.94531e-016 9.54166e-015 2.98177e-016 -9.93923e-017 9.54166e-015 -8.64309 -33.1949 -23.9888 -173.246 61.9472 169.706 17.2731 37.5319 -28.4005 3.18055e-015 -3.18055e-015 -0 10.813 -34.0472 21.2987 172.937 60.8509 -169.231 -18.6789 39.4523 25.0736 -1.52214e-007 3.19104e-006 6.54882e-007 
1.66352 23.3646 23.5078 -0.000253532 -15.0023 179.999 0.00923827 3.51077 -0.0491134 0.0215591 7.02151 -0.099075 0.0215591 7.02152 -0.0990751 0.221017 32.3612 0.513822 -4.81167 -11.0138 -1.31317 -27.9934 1.32917 -7.1644 -23.9043 -3.21336 -38.1726 -38.2084 41.9842 -26.3447 60.2287 -16.8294 -23.9621 -1.21124e-032 -6.98231e-015 -9.93923e-017 4.73611e-032 -3.64024e-015 7.45443e-016 3.18055e-015 -6.47293e-015 -6.95746e-016 -1.21124e-032 -6.98231e-015 -9.93923e-017 -0.014616 -8.57447e-005 -3.69326e-006 -5.86847e-031 9.26834e-015 3.62782e-015 -1.21124e-032 -6.98231e-015 -9.93923e-017 -0.018741 -0.0011793 5.80448e-005 -8.32741e-007 -1.61285e-006 9.92598e-007 -1.21124e-032 -6.98231e-015 -9.93923e-017 -0.0122777 -0.00324847 0.00067071 1.59028e-015 6.1499e-015 -7.95139e-016 -1.21124e-032 -6.98231e-015 -9.93923e-017 4.73611e-032 -3.64024e-015 7.45443e-016 3.18055e-015 -6.47293e-015 -6.95746e-016 26.2754 -2.90634 3.58651 24.2629 -3.68573 40.4387 40.2629 42.0722 32.3102 -49.2222 -53.5085 -14.3983 5.18926e-007 1.19884e-006 1.01539e-006 1.55678e-006 3.59651e-006 3.04617e-006 5.18926e-007 1.19884e-006 1.01539e-006 5.18926e-007 1.19884e-006 1.01539e-006 0.0150117 -8.68536e-005 2.74335e-006 5.18872e-007 1.19897e-006 1.01523e-006 5.18926e-007 1.19884e-006 1.01539e-006 0.0189812 -0.00118866 -5.30909e-005 5.18866e-007 1.19901e-006 1.01519e-006 5.18926e-007 1.19884e-006 1.01539e-006 0.0122841 -0.00325027 -0.00067374 5.18903e-007 1.19896e-006 1.01525e-006 5.18926e-007 1.19884e-006 1.01539e-006 1.55678e-006 3.59651e-006 3.04617e-006 5.18926e-007 1.19884e-006 1.01539e-006 -8.77486 -33.8404 -24.178 -173.25 61.9182 169.708 17.2746 37.5342 -28.4033 2.91758e-007 4.59513e-006 1.74971e-007 10.9383 -34.6988 21.4802 172.937 60.8498 -169.231 -18.6794 39.4547 25.0746 -2.39892e-006 6.76038e-006 2.66509e-007 
1.66357 23.3462 23.6524 -0.00026242 -15.5033 179.999 0.00962318 3.56597 -0.0490979 0.0223805 7.13202 -0.0990859 0.0223805 7.13202 -0.099086 0.457158 30.7138 1.03011 -4.55021 -12.0705 -1.7404 -28.3557 0.363646 -6.77795 -23.9043 -3.21335 -38.1726 -38.509 42.1046 -26.5825 59.9642 -16.1159 -24.4306 1.59028e-015 -1.40889e-014 -2.88238e-015 1.59028e-015 -1.08586e-014 -3.18055e-015 -3.18055e-015 -1.10325e-014 -2.38542e-015 1.59028e-015 -1.40889e-014 -2.88238e-015 -0.0146154 -8.75029e-005 1.60944e-006 3.18055e-015 5.86415e-015 1.98785e-015 1.59028e-015 -1.40889e-014 -2.88238e-015 -0.0187419 -0.00117395 6.22556e-005 -3.39664e-031 -1.22377e-014 -1.59028e-015 1.59028e-015 -1.40889e-014 -2.88238e-015 -0.0122775 -0.00325164 0.000666773 -8.38324e-007 -1.62198e-006 9.91444e-007 1.59028e-015 -1.40889e-014 -2.88238e-015 1.59028e-015 -1.08586e-014 -3.18055e-015 -3.18055e-015 -1.10325e-014 -2.38542e-015 26.5336 -3.83004 3.29525 24.2629 -3.68573 40.4387 40.6238 42.2496 32.6604 -49.0639 -52.7543 -14.2908 3.97569e-016 7.95139e-016 -0 -1.68967e-015 7.95139e-016 3.18055e-015 -1.49089e-015 1.49089e-015 -0 3.97569e-016 7.95139e-016 -0 0.0149759 -9.34468e-005 -1.84684e-007 -8.94531e-016 -8.94531e-016 -9.54166e-015 3.97569e-016 7.95139e-016 -0 0.019001 -0.0011876 -5.93999e-005 -1.65521e-031 1.49089e-015 6.36111e-015 3.97569e-016 7.95139e-016 -0 0.0122533 -0.00324489 -0.000679391 -5.96354e-016 1.98785e-015 3.18055e-015 3.97569e-016 7.95139e-016 -0 -1.68967e-015 7.95139e-016 3.18055e-015 -1.49089e-015 1.49089e-015 -0 -8.90992 -34.4866 -24.3703 -173.255 61.8883 169.711 17.2762 37.5366 -28.4062 1.43219e-006 -1.47464e-007 -9.24925e-007 11.0674 -35.349 21.665 172.937 60.8495 -169.231 -18.6799 39.4571 25.0757 2.02674e-006 -3.28019e-007 8.46139e-007 
